<?xml version="1.0" encoding="UTF-8" standalone="no"?>
<!DOCTYPE svg PUBLIC "-//W3C//DTD SVG 1.1//EN" "http://www.w3.org/Graphics/SVG/1.1/DTD/svg11.dtd">
<svg version="1.1" xmlns="http://www.w3.org/2000/svg" xmlns:xlink="http://www.w3.org/1999/xlink" preserveAspectRatio="xMidYMid meet" viewBox="0 0 80 80" width="80" height="80"><defs><path d="M60 40C60 51.04 51.04 60 40 60C28.96 60 20 51.04 20 40C20 28.96 28.96 20 40 20C51.04 20 60 28.96 60 40Z" id="e63dwCPXkI"></path><path d="M43.72 3.79C45.1 3.79 46.22 4.91 46.22 6.29C46.22 13.47 46.22 32.48 46.22 39.66C46.22 41.04 45.1 42.16 43.72 42.16C41.93 42.16 39.08 42.16 37.3 42.16C35.92 42.16 34.8 41.04 34.8 39.66C34.8 32.48 34.8 13.47 34.8 6.29C34.8 4.91 35.92 3.79 37.3 3.79C39.08 3.79 41.93 3.79 43.72 3.79Z" id="e3UkbWDqe2"></path></defs><g><g><g><use xlink:href="#e63dwCPXkI" opacity="1" fill="#28f9e8" fill-opacity="1"></use><g><use xlink:href="#e63dwCPXkI" opacity="1" fill-opacity="0" stroke="#dd75f3" stroke-width="5" stroke-opacity="1"></use></g></g><g><use xlink:href="#e3UkbWDqe2" opacity="1" fill="#28f9e8" fill-opacity="1"></use></g></g></g></svg>